<mxfile host="Electron" modified="2023-05-28T22:32:31.390Z" agent="Mozilla/5.0 (Macintosh; Intel Mac OS X 10_15_7) AppleWebKit/537.36 (KHTML, like Gecko) draw.io/21.2.1 Chrome/112.0.5615.87 Electron/24.1.2 Safari/537.36" etag="cyVBiphPX8PwXHvS5Wiz" version="21.2.1" type="device">
  <diagram name="Page-1" id="H1nZVYqxkzLZFgEqRADx">
    <mxGraphModel dx="-6272" dy="1070" grid="1" gridSize="10" guides="1" tooltips="1" connect="1" arrows="1" fold="1" page="1" pageScale="1" pageWidth="850" pageHeight="1100" math="0" shadow="0">
      <root>
        <mxCell id="0" />
        <mxCell id="1" parent="0" />
        <mxCell id="AsBp8XiL8Dx4Y6rQVwFH-1917" value="R, W: 113, H: 98, ORDER: 12, GC: {41, 30, 42, 11, 7, 12, 4, 3, 1, 2, 57, 56} " style="text;html=1;strokeColor=none;fillColor=none;align=center;verticalAlign=middle;whiteSpace=wrap;rounded=0;flipV=1;" parent="1" vertex="1">
          <mxGeometry x="7170" y="4360" width="1130" height="30" as="geometry" />
        </mxCell>
        <mxCell id="AsBp8XiL8Dx4Y6rQVwFH-7515" value="R, W: 113, H: 101, ORDER: 18, GC: {44, 31, 38, 13, 18, 11, 27, 57, 29, 10, 17, 3, 7, 23, 9, 5, 19, 14} " style="text;html=1;strokeColor=none;fillColor=none;align=center;verticalAlign=middle;whiteSpace=wrap;rounded=0;flipV=1;" parent="1" vertex="1">
          <mxGeometry x="7130" width="1130" height="30" as="geometry" />
        </mxCell>
        <mxCell id="AsBp8XiL8Dx4Y6rQVwFH-10349" value="R, W: 113, H: 85, ORDER: 19, GC: {38, 29, 27, 19, 7, 12, 2, 5, 22, 4, 1, 3, 24, 9, 20, 47, 36, 6, 30} " style="text;html=1;strokeColor=none;fillColor=none;align=center;verticalAlign=middle;whiteSpace=wrap;rounded=0;flipV=1;" parent="1" vertex="1">
          <mxGeometry x="7160" y="1160" width="1130" height="30" as="geometry" />
        </mxCell>
        <mxCell id="AsBp8XiL8Dx4Y6rQVwFH-45825" value="R, W: 113, H: 95, ORDER: 24, GC: {17, 23, 9, 8, 34, 12, 1, 7, 10, 4, 3, 11, 39, 16, 15, 14, 24, 5, 19, 25, 45, 37, 6, 31} " style="text;html=1;strokeColor=none;fillColor=none;align=center;verticalAlign=middle;whiteSpace=wrap;rounded=0;flipV=1;" parent="1" vertex="1">
          <mxGeometry x="7170" y="2170" width="1130" height="30" as="geometry" />
        </mxCell>
        <mxCell id="AsBp8XiL8Dx4Y6rQVwFH-45900" value="R, W: 113, H: 95, ORDER: 24, GC: {45, 37, 31, 6, 25, 24, 19, 5, 39, 14, 15, 10, 4, 16, 3, 12, 7, 9, 1, 8, 11, 34, 23, 17} " style="text;html=1;strokeColor=none;fillColor=none;align=center;verticalAlign=middle;whiteSpace=wrap;rounded=0;flipV=1;" parent="1" vertex="1">
          <mxGeometry x="7130" y="3270" width="1130" height="30" as="geometry" />
        </mxCell>
        <mxCell id="96E0xnlaUhVjSWdihs5J-1" value="" style="group;flipV=1;" parent="1" vertex="1" connectable="0">
          <mxGeometry x="7130" y="50" width="1130" height="1010" as="geometry" />
        </mxCell>
        <mxCell id="761dnnyQ54j-Cl0NHfQN-7516" value="44" style="rounded=0;whiteSpace=wrap;html=1;" parent="96E0xnlaUhVjSWdihs5J-1" vertex="1">
          <mxGeometry y="570" width="440" height="440" as="geometry" />
        </mxCell>
        <mxCell id="761dnnyQ54j-Cl0NHfQN-7517" value="31" style="rounded=0;whiteSpace=wrap;html=1;" parent="96E0xnlaUhVjSWdihs5J-1" vertex="1">
          <mxGeometry x="440" y="700" width="310" height="310" as="geometry" />
        </mxCell>
        <mxCell id="761dnnyQ54j-Cl0NHfQN-7518" value="38" style="rounded=0;whiteSpace=wrap;html=1;" parent="96E0xnlaUhVjSWdihs5J-1" vertex="1">
          <mxGeometry x="750" y="630" width="380" height="380" as="geometry" />
        </mxCell>
        <mxCell id="761dnnyQ54j-Cl0NHfQN-7519" value="13" style="rounded=0;whiteSpace=wrap;html=1;" parent="96E0xnlaUhVjSWdihs5J-1" vertex="1">
          <mxGeometry x="440" y="570" width="130" height="130" as="geometry" />
        </mxCell>
        <mxCell id="761dnnyQ54j-Cl0NHfQN-7520" value="18" style="rounded=0;whiteSpace=wrap;html=1;" parent="96E0xnlaUhVjSWdihs5J-1" vertex="1">
          <mxGeometry x="570" y="520" width="180" height="180" as="geometry" />
        </mxCell>
        <mxCell id="761dnnyQ54j-Cl0NHfQN-7521" value="11" style="rounded=0;whiteSpace=wrap;html=1;" parent="96E0xnlaUhVjSWdihs5J-1" vertex="1">
          <mxGeometry x="750" y="520" width="110" height="110" as="geometry" />
        </mxCell>
        <mxCell id="761dnnyQ54j-Cl0NHfQN-7522" value="27" style="rounded=0;whiteSpace=wrap;html=1;" parent="96E0xnlaUhVjSWdihs5J-1" vertex="1">
          <mxGeometry x="860" y="360" width="270" height="270" as="geometry" />
        </mxCell>
        <mxCell id="761dnnyQ54j-Cl0NHfQN-7523" value="57" style="rounded=0;whiteSpace=wrap;html=1;" parent="96E0xnlaUhVjSWdihs5J-1" vertex="1">
          <mxGeometry width="570" height="570" as="geometry" />
        </mxCell>
        <mxCell id="761dnnyQ54j-Cl0NHfQN-7524" value="29" style="rounded=0;whiteSpace=wrap;html=1;" parent="96E0xnlaUhVjSWdihs5J-1" vertex="1">
          <mxGeometry x="570" y="230" width="290" height="290" as="geometry" />
        </mxCell>
        <mxCell id="761dnnyQ54j-Cl0NHfQN-7525" value="10" style="rounded=0;whiteSpace=wrap;html=1;" parent="96E0xnlaUhVjSWdihs5J-1" vertex="1">
          <mxGeometry x="860" y="260" width="100" height="100" as="geometry" />
        </mxCell>
        <mxCell id="761dnnyQ54j-Cl0NHfQN-7526" value="17" style="rounded=0;whiteSpace=wrap;html=1;" parent="96E0xnlaUhVjSWdihs5J-1" vertex="1">
          <mxGeometry x="960" y="190" width="170" height="170" as="geometry" />
        </mxCell>
        <mxCell id="761dnnyQ54j-Cl0NHfQN-7527" value="3" style="rounded=0;whiteSpace=wrap;html=1;" parent="96E0xnlaUhVjSWdihs5J-1" vertex="1">
          <mxGeometry x="860" y="230" width="30" height="30" as="geometry" />
        </mxCell>
        <mxCell id="761dnnyQ54j-Cl0NHfQN-7528" value="7" style="rounded=0;whiteSpace=wrap;html=1;" parent="96E0xnlaUhVjSWdihs5J-1" vertex="1">
          <mxGeometry x="890" y="190" width="70" height="70" as="geometry" />
        </mxCell>
        <mxCell id="761dnnyQ54j-Cl0NHfQN-7529" value="23" style="rounded=0;whiteSpace=wrap;html=1;" parent="96E0xnlaUhVjSWdihs5J-1" vertex="1">
          <mxGeometry x="570" width="230" height="230" as="geometry" />
        </mxCell>
        <mxCell id="761dnnyQ54j-Cl0NHfQN-7530" value="9" style="rounded=0;whiteSpace=wrap;html=1;" parent="96E0xnlaUhVjSWdihs5J-1" vertex="1">
          <mxGeometry x="800" y="140" width="90" height="90" as="geometry" />
        </mxCell>
        <mxCell id="761dnnyQ54j-Cl0NHfQN-7531" value="5" style="rounded=0;whiteSpace=wrap;html=1;" parent="96E0xnlaUhVjSWdihs5J-1" vertex="1">
          <mxGeometry x="890" y="140" width="50" height="50" as="geometry" />
        </mxCell>
        <mxCell id="761dnnyQ54j-Cl0NHfQN-7532" value="19" style="rounded=0;whiteSpace=wrap;html=1;" parent="96E0xnlaUhVjSWdihs5J-1" vertex="1">
          <mxGeometry x="940" width="190" height="190" as="geometry" />
        </mxCell>
        <mxCell id="761dnnyQ54j-Cl0NHfQN-7533" value="14" style="rounded=0;whiteSpace=wrap;html=1;" parent="96E0xnlaUhVjSWdihs5J-1" vertex="1">
          <mxGeometry x="800" width="140" height="140" as="geometry" />
        </mxCell>
        <mxCell id="96E0xnlaUhVjSWdihs5J-2" value="" style="group;flipV=1;" parent="1" vertex="1" connectable="0">
          <mxGeometry x="7160" y="1210" width="1130" height="850" as="geometry" />
        </mxCell>
        <mxCell id="761dnnyQ54j-Cl0NHfQN-10350" value="38" style="rounded=0;whiteSpace=wrap;html=1;" parent="96E0xnlaUhVjSWdihs5J-2" vertex="1">
          <mxGeometry y="470" width="380" height="380" as="geometry" />
        </mxCell>
        <mxCell id="761dnnyQ54j-Cl0NHfQN-10351" value="29" style="rounded=0;whiteSpace=wrap;html=1;" parent="96E0xnlaUhVjSWdihs5J-2" vertex="1">
          <mxGeometry x="380" y="560" width="290" height="290" as="geometry" />
        </mxCell>
        <mxCell id="761dnnyQ54j-Cl0NHfQN-10352" value="27" style="rounded=0;whiteSpace=wrap;html=1;" parent="96E0xnlaUhVjSWdihs5J-2" vertex="1">
          <mxGeometry x="670" y="580" width="270" height="270" as="geometry" />
        </mxCell>
        <mxCell id="761dnnyQ54j-Cl0NHfQN-10353" value="19" style="rounded=0;whiteSpace=wrap;html=1;" parent="96E0xnlaUhVjSWdihs5J-2" vertex="1">
          <mxGeometry x="940" y="660" width="190" height="190" as="geometry" />
        </mxCell>
        <mxCell id="761dnnyQ54j-Cl0NHfQN-10354" value="7" style="rounded=0;whiteSpace=wrap;html=1;" parent="96E0xnlaUhVjSWdihs5J-2" vertex="1">
          <mxGeometry x="940" y="590" width="70" height="70" as="geometry" />
        </mxCell>
        <mxCell id="761dnnyQ54j-Cl0NHfQN-10355" value="12" style="rounded=0;whiteSpace=wrap;html=1;" parent="96E0xnlaUhVjSWdihs5J-2" vertex="1">
          <mxGeometry x="1010" y="540" width="120" height="120" as="geometry" />
        </mxCell>
        <mxCell id="761dnnyQ54j-Cl0NHfQN-10356" value="2" style="rounded=0;whiteSpace=wrap;html=1;" parent="96E0xnlaUhVjSWdihs5J-2" vertex="1">
          <mxGeometry x="940" y="570" width="20" height="20" as="geometry" />
        </mxCell>
        <mxCell id="761dnnyQ54j-Cl0NHfQN-10357" value="5" style="rounded=0;whiteSpace=wrap;html=1;" parent="96E0xnlaUhVjSWdihs5J-2" vertex="1">
          <mxGeometry x="960" y="540" width="50" height="50" as="geometry" />
        </mxCell>
        <mxCell id="761dnnyQ54j-Cl0NHfQN-10358" value="22" style="rounded=0;whiteSpace=wrap;html=1;" parent="96E0xnlaUhVjSWdihs5J-2" vertex="1">
          <mxGeometry x="670" y="360" width="220" height="220" as="geometry" />
        </mxCell>
        <mxCell id="761dnnyQ54j-Cl0NHfQN-10359" value="4" style="rounded=0;whiteSpace=wrap;html=1;" parent="96E0xnlaUhVjSWdihs5J-2" vertex="1">
          <mxGeometry x="890" y="540" width="40" height="40" as="geometry" />
        </mxCell>
        <mxCell id="761dnnyQ54j-Cl0NHfQN-10360" value="1" style="rounded=0;whiteSpace=wrap;html=1;" parent="96E0xnlaUhVjSWdihs5J-2" vertex="1">
          <mxGeometry x="930" y="570" width="10" height="10" as="geometry" />
        </mxCell>
        <mxCell id="761dnnyQ54j-Cl0NHfQN-10361" value="3" style="rounded=0;whiteSpace=wrap;html=1;" parent="96E0xnlaUhVjSWdihs5J-2" vertex="1">
          <mxGeometry x="930" y="540" width="30" height="30" as="geometry" />
        </mxCell>
        <mxCell id="761dnnyQ54j-Cl0NHfQN-10362" value="24" style="rounded=0;whiteSpace=wrap;html=1;" parent="96E0xnlaUhVjSWdihs5J-2" vertex="1">
          <mxGeometry x="890" y="300" width="240" height="240" as="geometry" />
        </mxCell>
        <mxCell id="761dnnyQ54j-Cl0NHfQN-10363" value="9" style="rounded=0;whiteSpace=wrap;html=1;" parent="96E0xnlaUhVjSWdihs5J-2" vertex="1">
          <mxGeometry x="380" y="470" width="90" height="90" as="geometry" />
        </mxCell>
        <mxCell id="761dnnyQ54j-Cl0NHfQN-10364" value="20" style="rounded=0;whiteSpace=wrap;html=1;" parent="96E0xnlaUhVjSWdihs5J-2" vertex="1">
          <mxGeometry x="470" y="360" width="200" height="200" as="geometry" />
        </mxCell>
        <mxCell id="761dnnyQ54j-Cl0NHfQN-10365" value="47" style="rounded=0;whiteSpace=wrap;html=1;" parent="96E0xnlaUhVjSWdihs5J-2" vertex="1">
          <mxGeometry width="470" height="470" as="geometry" />
        </mxCell>
        <mxCell id="761dnnyQ54j-Cl0NHfQN-10366" value="36" style="rounded=0;whiteSpace=wrap;html=1;" parent="96E0xnlaUhVjSWdihs5J-2" vertex="1">
          <mxGeometry x="470" width="360" height="360" as="geometry" />
        </mxCell>
        <mxCell id="761dnnyQ54j-Cl0NHfQN-10367" value="6" style="rounded=0;whiteSpace=wrap;html=1;" parent="96E0xnlaUhVjSWdihs5J-2" vertex="1">
          <mxGeometry x="830" y="300" width="60" height="60" as="geometry" />
        </mxCell>
        <mxCell id="761dnnyQ54j-Cl0NHfQN-10368" value="30" style="rounded=0;whiteSpace=wrap;html=1;" parent="96E0xnlaUhVjSWdihs5J-2" vertex="1">
          <mxGeometry x="830" width="300" height="300" as="geometry" />
        </mxCell>
        <mxCell id="96E0xnlaUhVjSWdihs5J-3" value="" style="group;flipV=1;" parent="1" vertex="1" connectable="0">
          <mxGeometry x="7170" y="2220" width="1130" height="950" as="geometry" />
        </mxCell>
        <mxCell id="761dnnyQ54j-Cl0NHfQN-45826" value="17" style="rounded=0;whiteSpace=wrap;html=1;" parent="96E0xnlaUhVjSWdihs5J-3" vertex="1">
          <mxGeometry y="780" width="170" height="170" as="geometry" />
        </mxCell>
        <mxCell id="761dnnyQ54j-Cl0NHfQN-45827" value="23" style="rounded=0;whiteSpace=wrap;html=1;" parent="96E0xnlaUhVjSWdihs5J-3" vertex="1">
          <mxGeometry x="170" y="720" width="230" height="230" as="geometry" />
        </mxCell>
        <mxCell id="761dnnyQ54j-Cl0NHfQN-45828" value="9" style="rounded=0;whiteSpace=wrap;html=1;" parent="96E0xnlaUhVjSWdihs5J-3" vertex="1">
          <mxGeometry y="690" width="90" height="90" as="geometry" />
        </mxCell>
        <mxCell id="761dnnyQ54j-Cl0NHfQN-45829" value="8" style="rounded=0;whiteSpace=wrap;html=1;" parent="96E0xnlaUhVjSWdihs5J-3" vertex="1">
          <mxGeometry x="90" y="700" width="80" height="80" as="geometry" />
        </mxCell>
        <mxCell id="761dnnyQ54j-Cl0NHfQN-45830" value="34" style="rounded=0;whiteSpace=wrap;html=1;" parent="96E0xnlaUhVjSWdihs5J-3" vertex="1">
          <mxGeometry x="400" y="610" width="340" height="340" as="geometry" />
        </mxCell>
        <mxCell id="761dnnyQ54j-Cl0NHfQN-45831" value="12" style="rounded=0;whiteSpace=wrap;html=1;" parent="96E0xnlaUhVjSWdihs5J-3" vertex="1">
          <mxGeometry x="170" y="600" width="120" height="120" as="geometry" />
        </mxCell>
        <mxCell id="761dnnyQ54j-Cl0NHfQN-45832" value="1" style="rounded=0;whiteSpace=wrap;html=1;" parent="96E0xnlaUhVjSWdihs5J-3" vertex="1">
          <mxGeometry x="90" y="690" width="10" height="10" as="geometry" />
        </mxCell>
        <mxCell id="761dnnyQ54j-Cl0NHfQN-45833" value="7" style="rounded=0;whiteSpace=wrap;html=1;" parent="96E0xnlaUhVjSWdihs5J-3" vertex="1">
          <mxGeometry x="100" y="630" width="70" height="70" as="geometry" />
        </mxCell>
        <mxCell id="761dnnyQ54j-Cl0NHfQN-45834" value="10" style="rounded=0;whiteSpace=wrap;html=1;" parent="96E0xnlaUhVjSWdihs5J-3" vertex="1">
          <mxGeometry y="590" width="100" height="100" as="geometry" />
        </mxCell>
        <mxCell id="761dnnyQ54j-Cl0NHfQN-45835" value="4" style="rounded=0;whiteSpace=wrap;html=1;" parent="96E0xnlaUhVjSWdihs5J-3" vertex="1">
          <mxGeometry x="100" y="590" width="40" height="40" as="geometry" />
        </mxCell>
        <mxCell id="761dnnyQ54j-Cl0NHfQN-45836" value="3" style="rounded=0;whiteSpace=wrap;html=1;" parent="96E0xnlaUhVjSWdihs5J-3" vertex="1">
          <mxGeometry x="140" y="600" width="30" height="30" as="geometry" />
        </mxCell>
        <mxCell id="761dnnyQ54j-Cl0NHfQN-45837" value="11" style="rounded=0;whiteSpace=wrap;html=1;" parent="96E0xnlaUhVjSWdihs5J-3" vertex="1">
          <mxGeometry x="290" y="610" width="110" height="110" as="geometry" />
        </mxCell>
        <mxCell id="761dnnyQ54j-Cl0NHfQN-45838" value="39" style="rounded=0;whiteSpace=wrap;html=1;" parent="96E0xnlaUhVjSWdihs5J-3" vertex="1">
          <mxGeometry x="740" y="560" width="390" height="390" as="geometry" />
        </mxCell>
        <mxCell id="761dnnyQ54j-Cl0NHfQN-45839" value="16" style="rounded=0;whiteSpace=wrap;html=1;" parent="96E0xnlaUhVjSWdihs5J-3" vertex="1">
          <mxGeometry x="290" y="450" width="160" height="160" as="geometry" />
        </mxCell>
        <mxCell id="761dnnyQ54j-Cl0NHfQN-45840" value="15" style="rounded=0;whiteSpace=wrap;html=1;" parent="96E0xnlaUhVjSWdihs5J-3" vertex="1">
          <mxGeometry x="140" y="450" width="150" height="150" as="geometry" />
        </mxCell>
        <mxCell id="761dnnyQ54j-Cl0NHfQN-45841" value="14" style="rounded=0;whiteSpace=wrap;html=1;" parent="96E0xnlaUhVjSWdihs5J-3" vertex="1">
          <mxGeometry y="450" width="140" height="140" as="geometry" />
        </mxCell>
        <mxCell id="761dnnyQ54j-Cl0NHfQN-45842" value="24" style="rounded=0;whiteSpace=wrap;html=1;" parent="96E0xnlaUhVjSWdihs5J-3" vertex="1">
          <mxGeometry x="450" y="370" width="240" height="240" as="geometry" />
        </mxCell>
        <mxCell id="761dnnyQ54j-Cl0NHfQN-45843" value="5" style="rounded=0;whiteSpace=wrap;html=1;" parent="96E0xnlaUhVjSWdihs5J-3" vertex="1">
          <mxGeometry x="690" y="560" width="50" height="50" as="geometry" />
        </mxCell>
        <mxCell id="761dnnyQ54j-Cl0NHfQN-45844" value="19" style="rounded=0;whiteSpace=wrap;html=1;" parent="96E0xnlaUhVjSWdihs5J-3" vertex="1">
          <mxGeometry x="690" y="370" width="190" height="190" as="geometry" />
        </mxCell>
        <mxCell id="761dnnyQ54j-Cl0NHfQN-45845" value="25" style="rounded=0;whiteSpace=wrap;html=1;" parent="96E0xnlaUhVjSWdihs5J-3" vertex="1">
          <mxGeometry x="880" y="310" width="250" height="250" as="geometry" />
        </mxCell>
        <mxCell id="761dnnyQ54j-Cl0NHfQN-45846" value="45" style="rounded=0;whiteSpace=wrap;html=1;" parent="96E0xnlaUhVjSWdihs5J-3" vertex="1">
          <mxGeometry width="450" height="450" as="geometry" />
        </mxCell>
        <mxCell id="761dnnyQ54j-Cl0NHfQN-45847" value="37" style="rounded=0;whiteSpace=wrap;html=1;" parent="96E0xnlaUhVjSWdihs5J-3" vertex="1">
          <mxGeometry x="450" width="370" height="370" as="geometry" />
        </mxCell>
        <mxCell id="761dnnyQ54j-Cl0NHfQN-45848" value="6" style="rounded=0;whiteSpace=wrap;html=1;" parent="96E0xnlaUhVjSWdihs5J-3" vertex="1">
          <mxGeometry x="820" y="310" width="60" height="60" as="geometry" />
        </mxCell>
        <mxCell id="761dnnyQ54j-Cl0NHfQN-45849" value="31" style="rounded=0;whiteSpace=wrap;html=1;" parent="96E0xnlaUhVjSWdihs5J-3" vertex="1">
          <mxGeometry x="820" width="310" height="310" as="geometry" />
        </mxCell>
        <mxCell id="96E0xnlaUhVjSWdihs5J-4" value="" style="group;flipV=1;" parent="1" vertex="1" connectable="0">
          <mxGeometry x="7170" y="4410" width="1130" height="980" as="geometry" />
        </mxCell>
        <mxCell id="761dnnyQ54j-Cl0NHfQN-1918" value="41" style="rounded=0;whiteSpace=wrap;html=1;" parent="96E0xnlaUhVjSWdihs5J-4" vertex="1">
          <mxGeometry y="570" width="410" height="410" as="geometry" />
        </mxCell>
        <mxCell id="761dnnyQ54j-Cl0NHfQN-1919" value="30" style="rounded=0;whiteSpace=wrap;html=1;" parent="96E0xnlaUhVjSWdihs5J-4" vertex="1">
          <mxGeometry x="410" y="680" width="300" height="300" as="geometry" />
        </mxCell>
        <mxCell id="761dnnyQ54j-Cl0NHfQN-1920" value="42" style="rounded=0;whiteSpace=wrap;html=1;" parent="96E0xnlaUhVjSWdihs5J-4" vertex="1">
          <mxGeometry x="710" y="560" width="420" height="420" as="geometry" />
        </mxCell>
        <mxCell id="761dnnyQ54j-Cl0NHfQN-1921" value="11" style="rounded=0;whiteSpace=wrap;html=1;" parent="96E0xnlaUhVjSWdihs5J-4" vertex="1">
          <mxGeometry x="410" y="570" width="110" height="110" as="geometry" />
        </mxCell>
        <mxCell id="761dnnyQ54j-Cl0NHfQN-1922" value="7" style="rounded=0;whiteSpace=wrap;html=1;" parent="96E0xnlaUhVjSWdihs5J-4" vertex="1">
          <mxGeometry x="520" y="610" width="70" height="70" as="geometry" />
        </mxCell>
        <mxCell id="761dnnyQ54j-Cl0NHfQN-1923" value="12" style="rounded=0;whiteSpace=wrap;html=1;" parent="96E0xnlaUhVjSWdihs5J-4" vertex="1">
          <mxGeometry x="590" y="560" width="120" height="120" as="geometry" />
        </mxCell>
        <mxCell id="761dnnyQ54j-Cl0NHfQN-1924" value="4" style="rounded=0;whiteSpace=wrap;html=1;" parent="96E0xnlaUhVjSWdihs5J-4" vertex="1">
          <mxGeometry x="520" y="570" width="40" height="40" as="geometry" />
        </mxCell>
        <mxCell id="761dnnyQ54j-Cl0NHfQN-1925" value="3" style="rounded=0;whiteSpace=wrap;html=1;" parent="96E0xnlaUhVjSWdihs5J-4" vertex="1">
          <mxGeometry x="560" y="580" width="30" height="30" as="geometry" />
        </mxCell>
        <mxCell id="761dnnyQ54j-Cl0NHfQN-1926" value="1" style="rounded=0;whiteSpace=wrap;html=1;" parent="96E0xnlaUhVjSWdihs5J-4" vertex="1">
          <mxGeometry x="560" y="570" width="10" height="10" as="geometry" />
        </mxCell>
        <mxCell id="761dnnyQ54j-Cl0NHfQN-1927" value="2" style="rounded=0;whiteSpace=wrap;html=1;" parent="96E0xnlaUhVjSWdihs5J-4" vertex="1">
          <mxGeometry x="570" y="560" width="20" height="20" as="geometry" />
        </mxCell>
        <mxCell id="761dnnyQ54j-Cl0NHfQN-1928" value="57" style="rounded=0;whiteSpace=wrap;html=1;" parent="96E0xnlaUhVjSWdihs5J-4" vertex="1">
          <mxGeometry width="570" height="570" as="geometry" />
        </mxCell>
        <mxCell id="761dnnyQ54j-Cl0NHfQN-1929" value="56" style="rounded=0;whiteSpace=wrap;html=1;" parent="96E0xnlaUhVjSWdihs5J-4" vertex="1">
          <mxGeometry x="570" width="560" height="560" as="geometry" />
        </mxCell>
        <mxCell id="96E0xnlaUhVjSWdihs5J-5" value="" style="group;flipV=0;" parent="1" vertex="1" connectable="0">
          <mxGeometry x="7160" y="3320" width="1130" height="950" as="geometry" />
        </mxCell>
        <mxCell id="761dnnyQ54j-Cl0NHfQN-45901" value="45" style="rounded=0;whiteSpace=wrap;html=1;" parent="96E0xnlaUhVjSWdihs5J-5" vertex="1">
          <mxGeometry width="450" height="450" as="geometry" />
        </mxCell>
        <mxCell id="761dnnyQ54j-Cl0NHfQN-45902" value="37" style="rounded=0;whiteSpace=wrap;html=1;" parent="96E0xnlaUhVjSWdihs5J-5" vertex="1">
          <mxGeometry x="450" width="370" height="370" as="geometry" />
        </mxCell>
        <mxCell id="761dnnyQ54j-Cl0NHfQN-45903" value="31" style="rounded=0;whiteSpace=wrap;html=1;" parent="96E0xnlaUhVjSWdihs5J-5" vertex="1">
          <mxGeometry x="820" width="310" height="310" as="geometry" />
        </mxCell>
        <mxCell id="761dnnyQ54j-Cl0NHfQN-45904" value="6" style="rounded=0;whiteSpace=wrap;html=1;" parent="96E0xnlaUhVjSWdihs5J-5" vertex="1">
          <mxGeometry x="820" y="310" width="60" height="60" as="geometry" />
        </mxCell>
        <mxCell id="761dnnyQ54j-Cl0NHfQN-45905" value="25" style="rounded=0;whiteSpace=wrap;html=1;" parent="96E0xnlaUhVjSWdihs5J-5" vertex="1">
          <mxGeometry x="880" y="310" width="250" height="250" as="geometry" />
        </mxCell>
        <mxCell id="761dnnyQ54j-Cl0NHfQN-45906" value="24" style="rounded=0;whiteSpace=wrap;html=1;" parent="96E0xnlaUhVjSWdihs5J-5" vertex="1">
          <mxGeometry x="450" y="370" width="240" height="240" as="geometry" />
        </mxCell>
        <mxCell id="761dnnyQ54j-Cl0NHfQN-45907" value="19" style="rounded=0;whiteSpace=wrap;html=1;" parent="96E0xnlaUhVjSWdihs5J-5" vertex="1">
          <mxGeometry x="690" y="370" width="190" height="190" as="geometry" />
        </mxCell>
        <mxCell id="761dnnyQ54j-Cl0NHfQN-45908" value="5" style="rounded=0;whiteSpace=wrap;html=1;" parent="96E0xnlaUhVjSWdihs5J-5" vertex="1">
          <mxGeometry x="690" y="560" width="50" height="50" as="geometry" />
        </mxCell>
        <mxCell id="761dnnyQ54j-Cl0NHfQN-45909" value="39" style="rounded=0;whiteSpace=wrap;html=1;" parent="96E0xnlaUhVjSWdihs5J-5" vertex="1">
          <mxGeometry x="740" y="560" width="390" height="390" as="geometry" />
        </mxCell>
        <mxCell id="761dnnyQ54j-Cl0NHfQN-45910" value="14" style="rounded=0;whiteSpace=wrap;html=1;" parent="96E0xnlaUhVjSWdihs5J-5" vertex="1">
          <mxGeometry y="450" width="140" height="140" as="geometry" />
        </mxCell>
        <mxCell id="761dnnyQ54j-Cl0NHfQN-45911" value="15" style="rounded=0;whiteSpace=wrap;html=1;" parent="96E0xnlaUhVjSWdihs5J-5" vertex="1">
          <mxGeometry x="140" y="450" width="150" height="150" as="geometry" />
        </mxCell>
        <mxCell id="761dnnyQ54j-Cl0NHfQN-45912" value="10" style="rounded=0;whiteSpace=wrap;html=1;" parent="96E0xnlaUhVjSWdihs5J-5" vertex="1">
          <mxGeometry y="590" width="100" height="100" as="geometry" />
        </mxCell>
        <mxCell id="761dnnyQ54j-Cl0NHfQN-45913" value="4" style="rounded=0;whiteSpace=wrap;html=1;" parent="96E0xnlaUhVjSWdihs5J-5" vertex="1">
          <mxGeometry x="100" y="590" width="40" height="40" as="geometry" />
        </mxCell>
        <mxCell id="761dnnyQ54j-Cl0NHfQN-45914" value="16" style="rounded=0;whiteSpace=wrap;html=1;" parent="96E0xnlaUhVjSWdihs5J-5" vertex="1">
          <mxGeometry x="290" y="450" width="160" height="160" as="geometry" />
        </mxCell>
        <mxCell id="761dnnyQ54j-Cl0NHfQN-45915" value="3" style="rounded=0;whiteSpace=wrap;html=1;" parent="96E0xnlaUhVjSWdihs5J-5" vertex="1">
          <mxGeometry x="140" y="600" width="30" height="30" as="geometry" />
        </mxCell>
        <mxCell id="761dnnyQ54j-Cl0NHfQN-45916" value="12" style="rounded=0;whiteSpace=wrap;html=1;" parent="96E0xnlaUhVjSWdihs5J-5" vertex="1">
          <mxGeometry x="170" y="600" width="120" height="120" as="geometry" />
        </mxCell>
        <mxCell id="761dnnyQ54j-Cl0NHfQN-45917" value="7" style="rounded=0;whiteSpace=wrap;html=1;" parent="96E0xnlaUhVjSWdihs5J-5" vertex="1">
          <mxGeometry x="100" y="630" width="70" height="70" as="geometry" />
        </mxCell>
        <mxCell id="761dnnyQ54j-Cl0NHfQN-45918" value="9" style="rounded=0;whiteSpace=wrap;html=1;" parent="96E0xnlaUhVjSWdihs5J-5" vertex="1">
          <mxGeometry y="690" width="90" height="90" as="geometry" />
        </mxCell>
        <mxCell id="761dnnyQ54j-Cl0NHfQN-45919" value="1" style="rounded=0;whiteSpace=wrap;html=1;" parent="96E0xnlaUhVjSWdihs5J-5" vertex="1">
          <mxGeometry x="90" y="690" width="10" height="10" as="geometry" />
        </mxCell>
        <mxCell id="761dnnyQ54j-Cl0NHfQN-45920" value="8" style="rounded=0;whiteSpace=wrap;html=1;" parent="96E0xnlaUhVjSWdihs5J-5" vertex="1">
          <mxGeometry x="90" y="700" width="80" height="80" as="geometry" />
        </mxCell>
        <mxCell id="761dnnyQ54j-Cl0NHfQN-45921" value="11" style="rounded=0;whiteSpace=wrap;html=1;" parent="96E0xnlaUhVjSWdihs5J-5" vertex="1">
          <mxGeometry x="290" y="610" width="110" height="110" as="geometry" />
        </mxCell>
        <mxCell id="761dnnyQ54j-Cl0NHfQN-45922" value="34" style="rounded=0;whiteSpace=wrap;html=1;" parent="96E0xnlaUhVjSWdihs5J-5" vertex="1">
          <mxGeometry x="400" y="610" width="340" height="340" as="geometry" />
        </mxCell>
        <mxCell id="761dnnyQ54j-Cl0NHfQN-45923" value="23" style="rounded=0;whiteSpace=wrap;html=1;" parent="96E0xnlaUhVjSWdihs5J-5" vertex="1">
          <mxGeometry x="170" y="720" width="230" height="230" as="geometry" />
        </mxCell>
        <mxCell id="761dnnyQ54j-Cl0NHfQN-45924" value="17" style="rounded=0;whiteSpace=wrap;html=1;" parent="96E0xnlaUhVjSWdihs5J-5" vertex="1">
          <mxGeometry y="780" width="170" height="170" as="geometry" />
        </mxCell>
      </root>
    </mxGraphModel>
  </diagram>
</mxfile>
